# xmcd
#
# Track frame offsets: 
#        150
#        26205
#        55436
#        81769
#        105018
#        137379
#        162629
#        186989
#        215953
#        243609
#        277934
#        305109
#        310031
#        333014
#
# Disc length: 4764 seconds
#
# Revision: 0
# Processed by: cddbd v1.5.2PL0 Copyright (c) Steve Scherf et al.
# Submitted via: ExactAudioCopy v0.99pb5
#
DISCID=c7129a0e
DTITLE=Robert Cray - red Rocks Amp., Morrison, Co.
DYEAR=1992
DGENRE=
TTITLE0=01 The Forcast
TTITLE1=02 Our Last Time
TTITLE2=03 Where Do I Go From Here
TTITLE3=04 I'm A Good Man
TTITLE4=05 The Last Time
TTITLE5=06 Consequences
TTITLE6=07 A Whole Lot Of Pain
TTITLE7=08 Just A Loser
TTITLE8=09 Right next Door
TTITLE9=10 I Was Warned
TTITLE10=11 Walk Around Time
TTITLE11=12 Band Intro
TTITLE12=13 Try A Little tenderness
TTITLE13=14 Smokin' Gun
EXTD=
EXTT0=
EXTT1=
EXTT2=
EXTT3=
EXTT4=
EXTT5=
EXTT6=
EXTT7=
EXTT8=
EXTT9=
EXTT10=
EXTT11=
EXTT12=
EXTT13=
PLAYORDER=
